<svg width="120" height="40" viewBox="0 0 120 40" fill="none" xmlns="http://www.w3.org/2000/svg">
<rect width="120" height="40" fill="transparent"/>
<rect x="0.25" y="0.25" width="119.5" height="39.5" rx="4.75" fill="black"/>
<rect x="0.25" y="0.25" width="119.5" height="39.5" rx="4.75" stroke="white" stroke-width="0.5"/>
<path d="M29.5803 8.27273V17H27.7351V8.27273H29.5803ZM32.8796 13.2159V17H31.0643V10.4545H32.7944V11.6094H32.8711C33.016 11.2287 33.2589 10.9276 33.5998 10.706C33.9407 10.4815 34.354 10.3693 34.8398 10.3693C35.2944 10.3693 35.6907 10.4688 36.0288 10.6676C36.3668 10.8665 36.6296 11.1506 36.8171 11.5199C37.0046 11.8864 37.0984 12.3239 37.0984 12.8324V17H35.283V13.1562C35.2859 12.7557 35.1836 12.4432 34.9762 12.2188C34.7688 11.9915 34.4833 11.8778 34.1197 11.8778C33.8754 11.8778 33.6594 11.9304 33.4719 12.0355C33.2873 12.1406 33.1424 12.294 33.0373 12.4957C32.935 12.6946 32.8825 12.9347 32.8796 13.2159ZM43.9751 12.321L42.3132 12.4233C42.2848 12.2812 42.2237 12.1534 42.13 12.0398C42.0362 11.9233 41.9126 11.831 41.7592 11.7628C41.6087 11.6918 41.4283 11.6562 41.218 11.6562C40.9368 11.6562 40.6996 11.7159 40.5064 11.8352C40.3132 11.9517 40.2166 12.108 40.2166 12.304C40.2166 12.4602 40.2791 12.5923 40.4041 12.7003C40.5291 12.8082 40.7436 12.8949 41.0476 12.9602L42.2322 13.1989C42.8686 13.3295 43.343 13.5398 43.6555 13.8295C43.968 14.1193 44.1243 14.5 44.1243 14.9716C44.1243 15.4006 43.9979 15.777 43.745 16.1009C43.495 16.4247 43.1513 16.6776 42.7138 16.8594C42.2791 17.0384 41.7777 17.1278 41.2095 17.1278C40.343 17.1278 39.6527 16.9474 39.1385 16.5866C38.6271 16.223 38.3274 15.7287 38.2393 15.1037L40.0249 15.0099C40.0788 15.2741 40.2095 15.4759 40.4169 15.6151C40.6243 15.7514 40.8899 15.8196 41.2138 15.8196C41.532 15.8196 41.7876 15.7585 41.9808 15.6364C42.1768 15.5114 42.2763 15.3509 42.2791 15.1548C42.2763 14.9901 42.2067 14.8551 42.0703 14.75C41.9339 14.642 41.7237 14.5597 41.4396 14.5028L40.3061 14.277C39.6669 14.1491 39.1911 13.9276 38.8786 13.6122C38.5689 13.2969 38.4141 12.8949 38.4141 12.4062C38.4141 11.9858 38.5277 11.6236 38.755 11.3196C38.9851 11.0156 39.3075 10.7812 39.7223 10.6165C40.1399 10.4517 40.6286 10.3693 41.1882 10.3693C42.0149 10.3693 42.6655 10.544 43.1399 10.8935C43.6172 11.2429 43.8956 11.7187 43.9751 12.321ZM48.7489 10.4545V11.8182H44.8072V10.4545H48.7489ZM45.7021 8.88636H47.5174V14.9886C47.5174 15.1562 47.543 15.2869 47.5941 15.3807C47.6452 15.4716 47.7163 15.5355 47.8072 15.5724C47.9009 15.6094 48.0089 15.6278 48.131 15.6278C48.2163 15.6278 48.3015 15.6207 48.3867 15.6065C48.4719 15.5895 48.5373 15.5767 48.5827 15.5682L48.8683 16.919C48.7773 16.9474 48.6495 16.9801 48.4847 17.017C48.32 17.0568 48.1197 17.081 47.8839 17.0895C47.4464 17.1065 47.0629 17.0483 46.7333 16.9148C46.4066 16.7812 46.1523 16.5739 45.9705 16.2926C45.7887 16.0114 45.6992 15.6562 45.7021 15.2273V8.88636ZM51.7979 17.1236C51.3803 17.1236 51.0082 17.0511 50.6815 16.9062C50.3548 16.7585 50.0962 16.5412 49.9059 16.2543C49.7184 15.9645 49.6246 15.6037 49.6246 15.1719C49.6246 14.8082 49.6914 14.5028 49.8249 14.2557C49.9585 14.0085 50.1403 13.8097 50.3704 13.6591C50.6005 13.5085 50.8619 13.3949 51.1545 13.3182C51.4499 13.2415 51.7596 13.1875 52.0835 13.1562C52.4641 13.1165 52.771 13.0795 53.0039 13.0455C53.2369 13.0085 53.4059 12.9545 53.511 12.8835C53.6161 12.8125 53.6687 12.7074 53.6687 12.5682V12.5426C53.6687 12.2727 53.5835 12.0639 53.413 11.9162C53.2454 11.7685 53.0067 11.6946 52.6971 11.6946C52.3704 11.6946 52.1104 11.767 51.9173 11.9119C51.7241 12.054 51.5962 12.233 51.5337 12.4489L49.8548 12.3125C49.94 11.9148 50.1076 11.571 50.3576 11.2812C50.6076 10.9886 50.93 10.7642 51.3249 10.608C51.7227 10.4489 52.1829 10.3693 52.7056 10.3693C53.0692 10.3693 53.4173 10.4119 53.7496 10.4972C54.0849 10.5824 54.3817 10.7145 54.6403 10.8935C54.9016 11.0724 55.1076 11.3026 55.2582 11.5838C55.4087 11.8622 55.484 12.196 55.484 12.5852V17H53.7624V16.0923H53.7113C53.6062 16.2969 53.4656 16.4773 53.2894 16.6335C53.1133 16.7869 52.9016 16.9077 52.6545 16.9957C52.4073 17.081 52.1218 17.1236 51.7979 17.1236ZM52.3178 15.8707C52.5849 15.8707 52.8207 15.8182 53.0252 15.7131C53.2298 15.6051 53.3903 15.4602 53.5067 15.2784C53.6232 15.0966 53.6815 14.8906 53.6815 14.6605V13.9659C53.6246 14.0028 53.5465 14.0369 53.4471 14.0682C53.3505 14.0966 53.2411 14.1236 53.119 14.1491C52.9968 14.1719 52.8746 14.1932 52.7525 14.2131C52.6303 14.2301 52.5195 14.2457 52.4201 14.2599C52.207 14.2912 52.021 14.3409 51.8619 14.4091C51.7028 14.4773 51.5792 14.5696 51.4911 14.6861C51.4031 14.7997 51.359 14.9418 51.359 15.1122C51.359 15.3594 51.4485 15.5483 51.6275 15.679C51.8093 15.8068 52.0394 15.8707 52.3178 15.8707ZM58.7077 8.27273V17H56.8924V8.27273H58.7077ZM61.9773 8.27273V17H60.1619V8.27273H61.9773ZM69.7287 10.4545V11.8182H65.6889V10.4545H69.7287ZM66.6136 17V9.98153C66.6136 9.5071 66.706 9.11364 66.8906 8.80114C67.0781 8.48864 67.3338 8.25426 67.6577 8.09801C67.9815 7.94176 68.3494 7.86364 68.7614 7.86364C69.0398 7.86364 69.294 7.88494 69.5241 7.92756C69.7571 7.97017 69.9304 8.00852 70.044 8.04261L69.7202 9.40625C69.6491 9.38352 69.5611 9.36222 69.456 9.34233C69.3537 9.32244 69.2486 9.3125 69.1406 9.3125C68.8736 9.3125 68.6875 9.375 68.5824 9.5C68.4773 9.62216 68.4247 9.79403 68.4247 10.0156V17H66.6136ZM70.8377 17V10.4545H72.5977V11.5966H72.6658C72.7852 11.1903 72.9854 10.8835 73.2667 10.6761C73.5479 10.4659 73.8718 10.3608 74.2383 10.3608C74.3292 10.3608 74.4272 10.3665 74.5323 10.3778C74.6374 10.3892 74.7298 10.4048 74.8093 10.4247V12.0355C74.7241 12.0099 74.6062 11.9872 74.4556 11.9673C74.305 11.9474 74.1673 11.9375 74.0423 11.9375C73.7752 11.9375 73.5366 11.9957 73.3263 12.1122C73.119 12.2259 72.9542 12.3849 72.832 12.5895C72.7127 12.794 72.6531 13.0298 72.6531 13.2969V17H70.8377ZM78.4006 17.1278C77.7386 17.1278 77.1662 16.9872 76.6832 16.706C76.2031 16.4219 75.8324 16.027 75.571 15.5213C75.3097 15.0128 75.179 14.4233 75.179 13.7528C75.179 13.0767 75.3097 12.4858 75.571 11.9801C75.8324 11.4716 76.2031 11.0767 76.6832 10.7955C77.1662 10.5114 77.7386 10.3693 78.4006 10.3693C79.0625 10.3693 79.6335 10.5114 80.1136 10.7955C80.5966 11.0767 80.9688 11.4716 81.2301 11.9801C81.4915 12.4858 81.6222 13.0767 81.6222 13.7528C81.6222 14.4233 81.4915 15.0128 81.2301 15.5213C80.9688 16.027 80.5966 16.4219 80.1136 16.706C79.6335 16.9872 79.0625 17.1278 78.4006 17.1278ZM78.4091 15.7216C78.7102 15.7216 78.9616 15.6364 79.1634 15.4659C79.3651 15.2926 79.517 15.0568 79.6193 14.7585C79.7244 14.4602 79.777 14.1207 79.777 13.7401C79.777 13.3594 79.7244 13.0199 79.6193 12.7216C79.517 12.4233 79.3651 12.1875 79.1634 12.0142C78.9616 11.8409 78.7102 11.7543 78.4091 11.7543C78.1051 11.7543 77.8494 11.8409 77.642 12.0142C77.4375 12.1875 77.2827 12.4233 77.1776 12.7216C77.0753 13.0199 77.0241 13.3594 77.0241 13.7401C77.0241 14.1207 77.0753 14.4602 77.1776 14.7585C77.2827 15.0568 77.4375 15.2926 77.642 15.4659C77.8494 15.6364 78.1051 15.7216 78.4091 15.7216ZM82.8026 17V10.4545H84.5327V11.6094H84.6094C84.7457 11.2259 84.973 10.9233 85.2912 10.7017C85.6094 10.4801 85.9901 10.3693 86.4332 10.3693C86.8821 10.3693 87.2642 10.4815 87.5795 10.706C87.8949 10.9276 88.1051 11.2287 88.2102 11.6094H88.2784C88.4119 11.2344 88.6534 10.9347 89.0028 10.7102C89.3551 10.483 89.7713 10.3693 90.2514 10.3693C90.8622 10.3693 91.358 10.5639 91.7386 10.9531C92.1222 11.3395 92.3139 11.8878 92.3139 12.598V17H90.5028V12.956C90.5028 12.5923 90.4063 12.3196 90.2131 12.1378C90.0199 11.956 89.7784 11.8651 89.4886 11.8651C89.1591 11.8651 88.902 11.9702 88.7173 12.1804C88.5327 12.3878 88.4403 12.6619 88.4403 13.0028V17H86.6804V12.9176C86.6804 12.5966 86.5881 12.3409 86.4034 12.1506C86.2216 11.9602 85.9815 11.8651 85.6832 11.8651C85.4815 11.8651 85.2997 11.9162 85.1378 12.0185C84.9787 12.1179 84.8523 12.2585 84.7585 12.4403C84.6648 12.6193 84.6179 12.8295 84.6179 13.071V17H82.8026ZM22.9506 34.4545C22.7205 34.4545 22.5046 34.4361 22.3029 34.3991C22.104 34.3651 21.9393 34.321 21.8086 34.267L22.2177 32.9119C22.4308 32.9773 22.6225 33.0128 22.793 33.0185C22.9663 33.0241 23.1154 32.9844 23.2404 32.8991C23.3683 32.8139 23.4719 32.669 23.5515 32.4645L23.658 32.1875L21.31 25.4545H23.2191L24.5742 30.2614H24.6424L26.0103 25.4545H27.9322L25.3881 32.7074C25.266 33.0597 25.0998 33.3665 24.8896 33.6278C24.6822 33.892 24.4194 34.0952 24.1012 34.2372C23.783 34.3821 23.3995 34.4545 22.9506 34.4545ZM31.6076 32.1278C30.9457 32.1278 30.3732 31.9872 29.8903 31.706C29.4102 31.4219 29.0394 31.027 28.7781 30.5213C28.5167 30.0128 28.386 29.4233 28.386 28.7528C28.386 28.0767 28.5167 27.4858 28.7781 26.9801C29.0394 26.4716 29.4102 26.0767 29.8903 25.7955C30.3732 25.5114 30.9457 25.3693 31.6076 25.3693C32.2695 25.3693 32.8406 25.5114 33.3207 25.7955C33.8036 26.0767 34.1758 26.4716 34.4371 26.9801C34.6985 27.4858 34.8292 28.0767 34.8292 28.7528C34.8292 29.4233 34.6985 30.0128 34.4371 30.5213C34.1758 31.027 33.8036 31.4219 33.3207 31.706C32.8406 31.9872 32.2695 32.1278 31.6076 32.1278ZM31.6161 30.7216C31.9173 30.7216 32.1687 30.6364 32.3704 30.4659C32.5721 30.2926 32.7241 30.0568 32.8263 29.7585C32.9315 29.4602 32.984 29.1207 32.984 28.7401C32.984 28.3594 32.9315 28.0199 32.8263 27.7216C32.7241 27.4233 32.5721 27.1875 32.3704 27.0142C32.1687 26.8409 31.9173 26.7543 31.6161 26.7543C31.3121 26.7543 31.0565 26.8409 30.8491 27.0142C30.6445 27.1875 30.4897 27.4233 30.3846 27.7216C30.2823 28.0199 30.2312 28.3594 30.2312 28.7401C30.2312 29.1207 30.2823 29.4602 30.3846 29.7585C30.4897 30.0568 30.6445 30.2926 30.8491 30.4659C31.0565 30.6364 31.3121 30.7216 31.6161 30.7216ZM40.207 29.2131V25.4545H42.0224V32H40.2795V30.8111H40.2113C40.0636 31.1946 39.8178 31.5028 39.4741 31.7358C39.1332 31.9687 38.717 32.0852 38.2255 32.0852C37.788 32.0852 37.4031 31.9858 37.0707 31.7869C36.7383 31.5881 36.4783 31.3054 36.2908 30.9389C36.1062 30.5724 36.0124 30.1335 36.0096 29.6222V25.4545H37.8249V29.2983C37.8278 29.6847 37.9315 29.9901 38.136 30.2145C38.3406 30.4389 38.6147 30.5511 38.9585 30.5511C39.1772 30.5511 39.3817 30.5014 39.5721 30.402C39.7624 30.2997 39.9158 30.1491 40.0323 29.9503C40.1516 29.7514 40.2099 29.5057 40.207 29.2131ZM43.4744 32V25.4545H45.2344V26.5966H45.3026C45.4219 26.1903 45.6222 25.8835 45.9034 25.6761C46.1847 25.4659 46.5085 25.3608 46.875 25.3608C46.9659 25.3608 47.0639 25.3665 47.169 25.3778C47.2741 25.3892 47.3665 25.4048 47.446 25.4247V27.0355C47.3608 27.0099 47.2429 26.9872 47.0923 26.9673C46.9418 26.9474 46.804 26.9375 46.679 26.9375C46.4119 26.9375 46.1733 26.9957 45.9631 27.1122C45.7557 27.2259 45.5909 27.3849 45.4688 27.5895C45.3494 27.794 45.2898 28.0298 45.2898 28.2969V32H43.4744ZM51.196 32V23.2727H53.0114V26.554H53.0668C53.1463 26.3778 53.2614 26.1989 53.4119 26.017C53.5653 25.8324 53.7642 25.679 54.0085 25.5568C54.2557 25.4318 54.5625 25.3693 54.929 25.3693C55.4063 25.3693 55.8466 25.4943 56.25 25.7443C56.6534 25.9915 56.9759 26.3651 57.2173 26.8651C57.4588 27.3622 57.5795 27.9858 57.5795 28.7358C57.5795 29.4659 57.4616 30.0824 57.2259 30.5852C56.9929 31.0852 56.6747 31.4645 56.2713 31.723C55.8707 31.9787 55.4219 32.1065 54.9247 32.1065C54.5724 32.1065 54.2727 32.0483 54.0256 31.9318C53.7812 31.8153 53.581 31.669 53.4247 31.4929C53.2685 31.3139 53.1491 31.1335 53.0668 30.9517H52.9858V32H51.196ZM52.973 28.7273C52.973 29.1165 53.027 29.456 53.1349 29.7457C53.2429 30.0355 53.3991 30.2614 53.6037 30.4233C53.8082 30.5824 54.0568 30.6619 54.3494 30.6619C54.6449 30.6619 54.8949 30.581 55.0994 30.419C55.304 30.2543 55.4588 30.027 55.5639 29.7372C55.6719 29.4446 55.7259 29.108 55.7259 28.7273C55.7259 28.3494 55.6733 28.017 55.5682 27.7301C55.4631 27.4432 55.3082 27.2187 55.1037 27.0568C54.8991 26.8949 54.6477 26.8139 54.3494 26.8139C54.054 26.8139 53.804 26.892 53.5994 27.0483C53.3977 27.2045 53.2429 27.4261 53.1349 27.7131C53.027 28 52.973 28.3381 52.973 28.7273ZM58.7908 32V25.4545H60.5508V26.5966H60.619C60.7383 26.1903 60.9386 25.8835 61.2198 25.6761C61.5011 25.4659 61.8249 25.3608 62.1914 25.3608C62.2823 25.3608 62.3803 25.3665 62.4854 25.3778C62.5906 25.3892 62.6829 25.4048 62.7624 25.4247V27.0355C62.6772 27.0099 62.5593 26.9872 62.4087 26.9673C62.2582 26.9474 62.1204 26.9375 61.9954 26.9375C61.7283 26.9375 61.4897 26.9957 61.2795 27.1122C61.0721 27.2259 60.9073 27.3849 60.7852 27.5895C60.6658 27.794 60.6062 28.0298 60.6062 28.2969V32H58.7908ZM66.3537 32.1278C65.6918 32.1278 65.1193 31.9872 64.6364 31.706C64.1563 31.4219 63.7855 31.027 63.5241 30.5213C63.2628 30.0128 63.1321 29.4233 63.1321 28.7528C63.1321 28.0767 63.2628 27.4858 63.5241 26.9801C63.7855 26.4716 64.1563 26.0767 64.6364 25.7955C65.1193 25.5114 65.6918 25.3693 66.3537 25.3693C67.0156 25.3693 67.5866 25.5114 68.0668 25.7955C68.5497 26.0767 68.9219 26.4716 69.1832 26.9801C69.4446 27.4858 69.5753 28.0767 69.5753 28.7528C69.5753 29.4233 69.4446 30.0128 69.1832 30.5213C68.9219 31.027 68.5497 31.4219 68.0668 31.706C67.5866 31.9872 67.0156 32.1278 66.3537 32.1278ZM66.3622 30.7216C66.6634 30.7216 66.9148 30.6364 67.1165 30.4659C67.3182 30.2926 67.4702 30.0568 67.5724 29.7585C67.6776 29.4602 67.7301 29.1207 67.7301 28.7401C67.7301 28.3594 67.6776 28.0199 67.5724 27.7216C67.4702 27.4233 67.3182 27.1875 67.1165 27.0142C66.9148 26.8409 66.6634 26.7543 66.3622 26.7543C66.0582 26.7543 65.8026 26.8409 65.5952 27.0142C65.3906 27.1875 65.2358 27.4233 65.1307 27.7216C65.0284 28.0199 64.9773 28.3594 64.9773 28.7401C64.9773 29.1207 65.0284 29.4602 65.1307 29.7585C65.2358 30.0568 65.3906 30.2926 65.5952 30.4659C65.8026 30.6364 66.0582 30.7216 66.3622 30.7216ZM71.8828 32L70.1016 25.4545H71.9382L72.9524 29.8523H73.0121L74.0689 25.4545H75.8714L76.9453 29.8267H77.0007L77.9979 25.4545H79.8303L78.0533 32H76.1314L75.0064 27.8835H74.9254L73.8004 32H71.8828ZM86.2447 27.321L84.5827 27.4233C84.5543 27.2812 84.4933 27.1534 84.3995 27.0398C84.3058 26.9233 84.1822 26.831 84.0288 26.7628C83.8782 26.6918 83.6978 26.6562 83.4876 26.6562C83.2063 26.6562 82.9691 26.7159 82.7759 26.8352C82.5827 26.9517 82.4862 27.108 82.4862 27.304C82.4862 27.4602 82.5487 27.5923 82.6737 27.7003C82.7987 27.8082 83.0131 27.8949 83.3171 27.9602L84.5018 28.1989C85.1381 28.3295 85.6126 28.5398 85.9251 28.8295C86.2376 29.1193 86.3938 29.5 86.3938 29.9716C86.3938 30.4006 86.2674 30.777 86.0146 31.1009C85.7646 31.4247 85.4208 31.6776 84.9833 31.8594C84.5487 32.0384 84.0472 32.1278 83.479 32.1278C82.6126 32.1278 81.9222 31.9474 81.408 31.5866C80.8967 31.223 80.5969 30.7287 80.5089 30.1037L82.2944 30.0099C82.3484 30.2741 82.479 30.4759 82.6864 30.6151C82.8938 30.7514 83.1594 30.8196 83.4833 30.8196C83.8015 30.8196 84.0572 30.7585 84.2504 30.6364C84.4464 30.5114 84.5458 30.3509 84.5487 30.1548C84.5458 29.9901 84.4762 29.8551 84.3398 29.75C84.2035 29.642 83.9933 29.5597 83.7092 29.5028L82.5756 29.277C81.9364 29.1491 81.4606 28.9276 81.1481 28.6122C80.8384 28.2969 80.6836 27.8949 80.6836 27.4062C80.6836 26.9858 80.7972 26.6236 81.0245 26.3196C81.2546 26.0156 81.5771 25.7812 81.9918 25.6165C82.4094 25.4517 82.8981 25.3693 83.4577 25.3693C84.2844 25.3693 84.935 25.544 85.4094 25.8935C85.8867 26.2429 86.1651 26.7187 86.2447 27.321ZM90.5199 32.1278C89.8466 32.1278 89.267 31.9915 88.7812 31.7188C88.2983 31.4432 87.9261 31.054 87.6648 30.5511C87.4034 30.0455 87.2727 29.4474 87.2727 28.7571C87.2727 28.0838 87.4034 27.4929 87.6648 26.9844C87.9261 26.4759 88.294 26.0795 88.7685 25.7955C89.2457 25.5114 89.8054 25.3693 90.4474 25.3693C90.8793 25.3693 91.2813 25.4389 91.6534 25.5781C92.0284 25.7145 92.3551 25.9205 92.6335 26.196C92.9148 26.4716 93.1335 26.8182 93.2898 27.2358C93.446 27.6506 93.5241 28.1364 93.5241 28.6932V29.1918H87.9972V28.0668H91.8153C91.8153 27.8054 91.7585 27.5739 91.6449 27.3722C91.5313 27.1705 91.3736 27.0128 91.1719 26.8991C90.973 26.7827 90.7415 26.7244 90.4773 26.7244C90.2017 26.7244 89.9574 26.7884 89.7443 26.9162C89.5341 27.0412 89.3693 27.2102 89.25 27.4233C89.1307 27.6335 89.0696 27.8679 89.0668 28.1264V29.196C89.0668 29.5199 89.1264 29.7997 89.2457 30.0355C89.3679 30.2713 89.5398 30.4531 89.7614 30.581C89.983 30.7088 90.2457 30.7727 90.5497 30.7727C90.7514 30.7727 90.9361 30.7443 91.1037 30.6875C91.2713 30.6307 91.4148 30.5455 91.5341 30.4318C91.6534 30.3182 91.7443 30.179 91.8068 30.0142L93.4858 30.125C93.4006 30.5284 93.2259 30.8807 92.9616 31.1818C92.7003 31.4801 92.3622 31.7131 91.9474 31.8807C91.5355 32.0455 91.0597 32.1278 90.5199 32.1278ZM94.7088 32V25.4545H96.4688V26.5966H96.5369C96.6563 26.1903 96.8565 25.8835 97.1378 25.6761C97.419 25.4659 97.7429 25.3608 98.1094 25.3608C98.2003 25.3608 98.2983 25.3665 98.4034 25.3778C98.5085 25.3892 98.6009 25.4048 98.6804 25.4247V27.0355C98.5952 27.0099 98.4773 26.9872 98.3267 26.9673C98.1761 26.9474 98.0384 26.9375 97.9134 26.9375C97.6463 26.9375 97.4077 26.9957 97.1974 27.1122C96.9901 27.2259 96.8253 27.3849 96.7031 27.5895C96.5838 27.794 96.5241 28.0298 96.5241 28.2969V32H94.7088Z" fill="white"/>
</svg>
