<?xml version="1.0" encoding="UTF-8"?>
<svg width="1200pt" height="1200pt" version="1.1" viewBox="0 0 1200 1200" xmlns="http://www.w3.org/2000/svg">
 <g fill="#fff">
  <path d="m1056 134.4h-94.801v106.8c0 45.602-37.199 82.801-82.801 82.801-45.602 0-82.801-37.199-82.801-82.801v-106.8h-390v106.8c0 45.602-37.199 82.801-82.801 82.801s-82.801-37.199-82.801-82.801v-106.8h-96c-54 0-97.199 43.199-97.199 97.199v841.2c0 54 43.199 97.199 97.199 97.199h912c54 0 97.199-43.199 97.199-97.199v-841.2c0.003907-53.996-43.195-97.199-97.195-97.199zm40.801 938.4c0 22.801-18 40.801-40.801 40.801h-912c-22.801 0-40.801-18-40.801-40.801v-572.4h994.8v572.4z"/>
  <path d="m322.8 280.8c22.801 0 40.801-18 40.801-40.801v-170.4c0-22.801-18-40.801-40.801-40.801s-40.801 18-40.801 40.801v170.4c0 22.801 18 40.801 40.801 40.801z"/>
  <path d="m878.4 280.8c22.801 0 40.801-18 40.801-40.801v-170.4c0-22.801-18-40.801-40.801-40.801-22.801 0-40.801 18-40.801 40.801v170.4c1.2031 22.801 19.203 40.801 40.801 40.801z"/>
  <path d="m424.8 697.2h116.4c21.602 0 39.602-18 39.602-39.602v-75.602c0-21.602-18-39.602-39.602-39.602h-116.4c-21.602 0-39.602 18-39.602 39.602v75.602c0 21.602 18 39.602 39.602 39.602z"/>
  <path d="m657.6 697.2h116.4c21.602 0 39.602-18 39.602-39.602v-75.602c0-21.602-18-39.602-39.602-39.602h-116.4c-21.602 0-39.602 18-39.602 39.602v75.602c0 21.602 18 39.602 39.602 39.602z"/>
  <path d="m891.6 697.2h116.4c21.602 0 39.602-18 39.602-39.602v-75.602c0-21.602-18-39.602-39.602-39.602h-116.4c-21.602 0-39.602 18-39.602 39.602v75.602c0 21.602 16.801 39.602 39.602 39.602z"/>
  <path d="m192 884.4h116.4c21.602 0 39.602-18 39.602-39.602v-75.602c0-21.602-18-39.602-39.602-39.602h-116.4c-21.602 0-39.602 18-39.602 39.602v75.602c0 21.602 16.801 39.602 39.602 39.602z"/>
  <path d="m424.8 884.4h116.4c21.602 0 39.602-18 39.602-39.602v-75.602c0-21.602-18-39.602-39.602-39.602h-116.4c-21.602 0-39.602 18-39.602 39.602v75.602c0 21.602 18 39.602 39.602 39.602z"/>
  <path d="m657.6 884.4h116.4c21.602 0 39.602-18 39.602-39.602v-75.602c0-21.602-18-39.602-39.602-39.602h-116.4c-21.602 0-39.602 18-39.602 39.602v75.602c0 21.602 18 39.602 39.602 39.602z"/>
  <path d="m891.6 884.4h116.4c21.602 0 39.602-18 39.602-39.602v-75.602c0-21.602-18-39.602-39.602-39.602h-116.4c-21.602 0-39.602 18-39.602 39.602v75.602c0 21.602 16.801 39.602 39.602 39.602z"/>
  <path d="m192 1071.6h116.4c21.602 0 39.602-18 39.602-39.602v-75.602c0-21.602-18-39.602-39.602-39.602h-116.4c-21.602 0-39.602 18-39.602 39.602v75.602c0 21.602 16.801 39.602 39.602 39.602z"/>
  <path d="m424.8 1071.6h116.4c21.602 0 39.602-18 39.602-39.602v-75.602c0-21.602-18-39.602-39.602-39.602h-116.4c-21.602 0-39.602 18-39.602 39.602v75.602c0 21.602 18 39.602 39.602 39.602z"/>
  <path d="m657.6 1071.6h116.4c21.602 0 39.602-18 39.602-39.602v-75.602c0-21.602-18-39.602-39.602-39.602h-116.4c-21.602 0-39.602 18-39.602 39.602v75.602c0 21.602 18 39.602 39.602 39.602z"/>
 </g>
</svg>
