<?xml version="1.0" encoding="UTF-8"?>
<svg width="1200pt" height="1200pt" version="1.1" viewBox="250 250 750 750" xmlns="http://www.w3.org/2000/svg">
 <path d="m763.44 730.04c94.371-111.34 89.035-278.34-16.012-383.39-110.67-110.67-290.11-110.67-400.78 0-110.67 110.67-110.67 290.11 0 400.78 105.05 105.05 272.05 110.38 383.39 16.012l184.26 184.26c9.2852 9.2852 24.559 9.0664 33.512 0.11328 9.2227-9.2227 8.9219-24.477-0.11328-33.512zm-49.41-16.012c-92.227 92.227-241.76 92.227-333.98 0s-92.227-241.76 0-333.98 241.76-92.227 333.98 0 92.227 241.76 0 333.98z" fill="#fff"/>
</svg>
