<?xml version="1.0" encoding="UTF-8"?>
<svg width="1200pt" height="1200pt" version="1.1" viewBox="250 250 700 700" xmlns="http://www.w3.org/2000/svg">
 <path d="m600 269.38c-182.48 0-330.62 148.14-330.62 330.62 0 182.48 148.14 330.62 330.62 330.62 182.48 0 330.62-148.14 330.62-330.62 0-182.48-148.14-330.62-330.62-330.62zm0 47.234c156.41 0 283.39 126.98 283.39 283.39 0 156.41-126.98 283.39-283.39 283.39-156.41 0-283.39-126.98-283.39-283.39 0-156.41 126.98-283.39 283.39-283.39zm23.617 448.7v-212.54c0-13.035-10.578-23.617-23.617-23.617-13.035 0-23.613 10.582-23.613 23.617v212.54c0 13.039 10.578 23.617 23.613 23.617 13.039 0 23.617-10.578 23.617-23.617zm-23.617-355.84c19.77 0 35.828 16.059 35.828 35.824 0 19.789-16.059 35.848-35.828 35.848-19.766 0-35.824-16.059-35.824-35.848 0-19.766 16.059-35.824 35.824-35.824z" fill="#fff" fill-rule="evenodd"/>
</svg>
