<?xml version="1.0" encoding="UTF-8"?>
<svg width="1200pt" height="1200pt" version="1.1" viewBox="0 0 1200 1200" xmlns="http://www.w3.org/2000/svg">
 <g fill="#fff">
  <path d="m900 1050h-600c-10.719 0-20.621 5.7188-25.98 15s-5.3594 20.719 0 30 15.262 15 25.98 15h600c10.719 0 20.621-5.7188 25.98-15s5.3594-20.719 0-30-15.262-15-25.98-15z"/>
  <path d="m578.76 981.24c1.3945 1.3867 2.9219 2.6328 4.5586 3.7227l2.2812 1.1992 2.8789 1.5586 3 0.96094 2.6406 0.71875c3.957 0.82812 8.043 0.82812 12 0l2.6406-0.71875 3-0.96094 2.8789-1.5586 2.2812-1.1992c1.6367-1.0898 3.1641-2.3359 4.5586-3.7227l296.76-297.24c6.4102-7.7422 8.5195-18.18 5.6172-27.801-2.9062-9.6211-10.434-17.148-20.055-20.055-9.6211-2.9023-20.059-0.79297-27.801 5.6172l-246 246.24v-768c0-10.719-5.7188-20.621-15-25.98s-20.719-5.3594-30 0-15 15.262-15 25.98v768l-246-246.24c-7.7422-6.4102-18.18-8.5195-27.801-5.6172-9.6211 2.9062-17.148 10.434-20.055 20.055-2.9023 9.6211-0.79297 20.059 5.6172 27.801z"/>
 </g>
</svg>
