<?xml version="1.0" encoding="UTF-8"?>
<svg width="1200pt" height="1200pt" version="1.1" viewBox="0 0 1200 1200" xmlns="http://www.w3.org/2000/svg">
 <path d="m509.62 0c-9.9453-0.039062-19.496 3.875-26.555 10.883-7.0625 7.0039-11.051 16.527-11.09 26.473v481.93h-115.72c-9.6484-0.03125-18.938 3.6562-25.938 10.297-6.9961 6.6406-11.168 15.723-11.645 25.359-0.47656 9.6367 2.7812 19.086 9.0898 26.383l243.82 282.64c7.125 8.2461 17.484 12.988 28.383 12.988 10.898 0 21.258-4.7422 28.379-12.988l243.9-282.64c6.293-7.2773 9.5508-16.699 9.0938-26.309-0.45703-9.6133-4.5898-18.684-11.543-25.332-6.957-6.6484-16.199-10.371-25.824-10.398h-115.94v-481.93c-0.039063-9.8984-3.9883-19.375-10.984-26.371-6.9961-6.9961-16.473-10.945-26.367-10.984zm-396.97 937.87c-9.9961-0.039063-19.594 3.9141-26.664 10.984-7.0703 7.0664-11.023 16.664-10.984 26.66v186.84c-0.039062 10 3.9141 19.598 10.984 26.664 7.0703 7.0703 16.668 11.023 26.664 10.984h974.93c9.957-0.019531 19.5-4 26.52-11.062s10.945-16.625 10.906-26.586v-186.84c0.039062-9.957-3.8867-19.52-10.906-26.582s-16.562-11.043-26.52-11.062z" fill="#fff"/>
</svg>
