<?xml version="1.0" encoding="UTF-8"?>
<svg width="1200pt" height="1200pt" version="1.1" viewBox="0 0 1200 1200" xmlns="http://www.w3.org/2000/svg">
 <path d="m1154.4 184.8c-18-26.398-38.398-51.602-63.602-75.602-16.801-16.801-42-37.199-74.398-60-39.598-27.598-92.398-22.801-126 10.801l-751.2 751.2c-3.6016 3.6016-6 8.3984-8.3984 13.199l-98.402 277.2c-6 18-2.3984 38.398 12 51.602 9.6016 9.6016 22.801 14.398 34.801 14.398 6 0 10.801-1.1992 16.801-2.3984l278.4-97.203c4.8008-1.1992 9.6016-4.8008 13.199-8.3984l753.6-753.6c32.402-32.398 38.402-84 13.199-121.2zm-973.2 706.8c48 34.801 90 78 126 126l-124.8 44.398c-4.8008-8.3984-12-18-19.199-25.199-8.3984-8.3984-16.801-14.398-25.199-19.199zm910.8-634.8-724.8 724.8c-40.801-57.602-92.398-108-150-150l722.4-722.4c9.6016-9.6016 25.199-10.801 36-2.3984 28.801 20.398 51.602 37.199 64.801 51.602 21.602 21.602 39.602 43.199 55.199 66 7.1992 8.3984 4.7969 23.996-3.6016 32.398z" fill="#fff"/>
</svg>
