<?xml version="1.0" encoding="UTF-8"?>
<svg width="1200pt" height="1200pt" version="1.1" viewBox="0 0 1200 1200" xmlns="http://www.w3.org/2000/svg">
 <path d="m1070.4 254.58c-48.328-81.258-124.85-132.14-209.93-139.57-82.125-7.1719-162.54 27.047-220.05 93.867l-39.539 45.938-28.711-33.352c-100.62-116.93-259.1-138.73-368.46-50.953-67.617 54.305-109.57 135.7-118.15 229.22-8.8594 96.258 19.758 190.62 78.539 258.89l60.703 70.312 352.24 347.18c6.6797 6.5391 15.234 9.8203 23.812 9.8203 8.5781 0 17.156-3.2812 23.859-9.8672l352.01-346.92c0.67969-0.63281 1.5703-1.5703 2.2031-2.3203l47.859-55.617c99.914-116.04 118.24-291.28 43.617-416.62z" fill="#fff"/>
</svg>
