<?xml version="1.0" encoding="UTF-8"?>
<svg width="1200pt" height="1200pt" version="1.1" viewBox="0 0 1200 1200" xmlns="http://www.w3.org/2000/svg">
 <path d="m162.52 300c0-20.719 16.781-37.5 37.5-37.5h799.97c20.719 0 37.5 16.781 37.5 37.5s-16.781 37.5-37.5 37.5h-799.97c-20.719 0-37.5-16.781-37.5-37.5zm0 300c0-20.719 16.781-37.5 37.5-37.5h799.97c20.719 0 37.5 16.781 37.5 37.5s-16.781 37.5-37.5 37.5h-799.97c-20.719 0-37.5-16.781-37.5-37.5zm37.5 262.5c-20.719 0-37.5 16.781-37.5 37.5s16.781 37.5 37.5 37.5h799.97c20.719 0 37.5-16.781 37.5-37.5s-16.781-37.5-37.5-37.5z" fill="#fff" fill-rule="evenodd"/>
</svg>
