<?xml version="1.0" encoding="UTF-8"?>
<svg width="1200pt" height="1200pt" version="1.1" viewBox="0 0 1200 1200" xmlns="http://www.w3.org/2000/svg">
 <path d="m1075 523.5-207.47-285.98c-24.609-33.656-63.844-53.578-105.52-53.531h-531.98c-71.719 0.28125-129.74 58.312-130.03 130.03v571.97c0.28125 71.719 58.312 129.74 130.03 130.03h531.98c41.672 0.046875 80.906-19.875 105.52-53.531l207.52-285.98h-0.046875c33.516-45.516 33.516-107.48 0-153zm-56.484 111.98-207.52 285.98v0.046875c-11.625 15.844-30.328 25.031-49.969 24.469h-531c-33.234 0-60.234-26.766-60.516-60v-571.97c0.28125-33.234 27.281-60 60.516-60h531.98c19.688-0.5625 38.344 8.625 50.016 24.469l207.52 285.98-0.046875 0.046875c15.234 21.328 14.812 50.062-0.98438 70.969zm-256.5-35.484c0 23.438-14.109 44.625-35.812 53.578-21.656 9-46.594 4.0312-63.188-12.562s-21.562-41.531-12.562-63.234c8.9531-21.656 30.094-35.766 53.578-35.766 15.375 0 30.141 6.0938 41.016 16.969s16.969 25.641 16.969 41.016zm-174 0c0.1875 23.719-13.922 45.188-35.766 54.422-21.844 9.1875-47.062 4.3125-63.938-12.375-16.828-16.688-21.938-41.906-12.891-63.797 9.0469-21.938 30.375-36.234 54.094-36.234 15.469-0.14062 30.328 5.9062 41.344 16.781 10.969 10.922 17.156 25.734 17.156 41.203zm-174.52 0c0.23438 23.766-13.969 45.281-35.859 54.469-21.891 9.1406-47.203 4.1719-63.984-12.609s-21.75-42.094-12.609-63.984c9.1875-21.891 30.703-36.094 54.469-35.859 15.375 0 30.141 6.0938 41.016 16.969s16.969 25.641 16.969 41.016z" fill="#fff"/>
</svg>
