<?xml version="1.0" encoding="UTF-8"?>
<svg width="1200pt" height="1200pt" version="1.1" viewBox="0 0 1200 1200" xmlns="http://www.w3.org/2000/svg">
 <path d="m983.86 402.98c67.359 42.844 108.14 117.19 108.14 197.02s-40.781 154.18-108.14 197.02l-516.98 328.97c-71.906 45.797-163.03 48.703-237.74 7.7344-74.719-41.016-121.13-119.48-121.13-204.71v-657.98c0-85.219 46.406-163.69 121.13-204.71 74.719-40.969 165.84-38.062 237.74 7.7344l516.98 328.97zm-40.266 63.281-516.98-328.97c-48.797-31.031-110.67-33.094-161.34-5.2031-50.719 27.844-82.219 81.094-82.219 138.94v657.98c0 57.844 31.5 111.09 82.219 138.94s112.59 25.828 161.34-5.2031l516.98-328.97c45.75-29.109 73.406-79.547 73.406-133.74 0-54.191-27.656-104.62-73.406-133.74z" fill="#fff" fill-rule="evenodd"/>
</svg>
