<?xml version="1.0" encoding="UTF-8"?>
<svg width="1200pt" height="1200pt" version="1.1" viewBox="-50 -50 1300 1300" xmlns="http://www.w3.org/2000/svg">
 <g fill="#fff">
  <path d="m600 96c133.67 0 261.86 53.102 356.38 147.62 94.516 94.52 147.62 222.71 147.62 356.38s-53.102 261.86-147.62 356.38c-94.52 94.516-222.71 147.62-356.38 147.62s-261.86-53.102-356.38-147.62c-94.516-94.52-147.62-222.71-147.62-356.38s53.102-261.86 147.62-356.38c94.52-94.516 222.71-147.62 356.38-147.62m0-96c-159.13 0-311.74 63.215-424.27 175.73-112.52 112.52-175.73 265.14-175.73 424.27s63.215 311.74 175.73 424.27c112.52 112.52 265.14 175.73 424.27 175.73s311.74-63.215 424.27-175.73c112.52-112.52 175.73-265.14 175.73-424.27s-63.215-311.74-175.73-424.27c-112.52-112.52-265.14-175.73-424.27-175.73z"/>
  <path d="m605.52 282 12.961 1.1992c32.09 2.0234 63.492 10.172 92.52 24 25.926 11.938 48.027 30.84 63.84 54.602 12.043 18.715 19.488 40.016 21.719 62.16 2.5078 19.148 0.95703 38.609-4.5586 57.117-6.8477 22.086-18.766 42.262-34.801 58.922-18.34 18.359-38.438 34.879-60 49.32-12 8.2812-22.68 16.922-33.961 25.559-10.203 8.4375-17.887 19.523-22.199 32.043-2.3984 6.4805-5.1602 12.961-7.6797 19.441v-0.003906c-3.0938 8.6211-8.7539 16.082-16.223 21.383-7.4648 5.3008-16.379 8.1836-25.535 8.2578-10.367 1.1367-20.852-0.51953-30.363-4.8008-14.613-7.1406-24.793-20.996-27.238-37.078-3.8242-22.273 1.3555-45.148 14.398-63.602 10.387-15.18 23.102-28.625 37.68-39.84 15.719-12.84 31.922-25.078 48-37.922v0.003907c13.348-10.215 24.523-22.984 32.883-37.562 6.4922-12.367 9.1602-26.387 7.6641-40.277-1.4961-13.887-7.0898-27.02-16.066-37.723-9.5156-10.375-22.152-17.367-36-19.918-18.434-4.3047-37.645-3.9727-55.918 0.95703-18.965 5.1797-34.758 18.309-43.32 36-5.6406 10.559-10.559 21.359-15.84 32.039v0.003906c-3.875 8.0742-9.1094 15.422-15.48 21.719-11.164 9.8047-25.895 14.543-40.68 13.078-8.9922-0.23047-17.801-2.6172-25.68-6.957-7.2578-3.7539-13.336-9.4375-17.57-16.426-4.2344-6.9844-6.4609-15.004-6.4297-23.176-0.61328-26.5 7.8555-52.414 24-73.441 18.664-25.23 43.441-45.297 72-58.316 21.539-10.227 44.602-16.871 68.281-19.684l13.441-1.3203z"/>
  <path d="m581.64 918c-3.6016-0.71875-7.1992-1.3203-10.68-2.2812-21.312-5.5781-38.477-21.348-45.832-42.113-7.3555-20.766-3.9492-43.824 9.0977-61.574 13.051-17.75 34.043-27.883 56.059-27.059 22.012 0.82422 42.188 12.504 53.871 31.18 11.68 18.676 13.352 41.926 4.4609 62.082-8.8906 20.156-27.188 34.602-48.855 38.566l-5.8789 1.1992z"/>
 </g>
</svg>
