<?xml version="1.0" encoding="UTF-8"?>
<svg width="1200pt" height="1200pt" version="1.1" viewBox="0 0 1200 1200" xmlns="http://www.w3.org/2000/svg">
 <path d="m937.08 844.08c-46.078 0-87.703 19.312-117.47 50.297l-402.14-242.86c5.3906-16.219 8.5312-33.469 8.5312-51.469s-3-35.297-8.5312-51.469l402.14-242.86c29.625 30.938 71.297 50.297 117.47 50.297 89.859 0 162.94-73.078 162.94-162.94 0-89.859-73.078-162.94-162.94-162.94s-162.94 73.078-162.94 162.94c0 18 3 35.297 8.5312 51.469l-402.28 242.76c-29.625-30.938-71.297-50.297-117.47-50.297-89.859 0-162.94 73.078-162.94 162.94s73.078 162.94 162.94 162.94c46.078 0 87.703-19.312 117.47-50.297l402.14 242.86c-5.3906 16.219-8.5312 33.469-8.5312 51.469 0 89.859 73.078 162.94 162.94 162.94 89.859 0 162.94-73.078 162.94-162.94s-73.078-162.94-162.94-162.94zm0-742.55c50.391 0 91.453 41.062 91.453 91.453s-41.062 91.453-91.453 91.453-91.453-41.062-91.453-91.453 41.062-91.453 91.453-91.453zm-674.16 589.92c-50.391 0-91.453-41.062-91.453-91.453s41.062-91.453 91.453-91.453 91.453 41.062 91.453 91.453-41.062 91.453-91.453 91.453zm674.06 407.06c-50.391 0-91.453-41.062-91.453-91.453s41.062-91.453 91.453-91.453 91.453 41.062 91.453 91.453-41.062 91.453-91.453 91.453z" fill="#fff"/>
</svg>
