<svg version="1.1" viewBox="0.0 0.0 512.0 512.0" fill="none" stroke="none" stroke-linecap="square" stroke-miterlimit="10" xmlns:xlink="http://www.w3.org/1999/xlink" xmlns="http://www.w3.org/2000/svg"><clipPath id="g1fab545f425_0_30.0"><path d="m0 0l512.0 0l0 512.0l-512.0 0l0 -512.0z" clip-rule="nonzero"/></clipPath><g clip-path="url(#g1fab545f425_0_30.0)"><path fill="#000000" fill-opacity="0.0" d="m0 0l512.0 0l0 512.0l-512.0 0z" fill-rule="evenodd"/><path fill="#373647" d="m296.8026 39.761154l90.86615 0l0 90.86615l-90.86615 0z" fill-rule="evenodd"/><path stroke="#ffffff" stroke-width="2.0" stroke-linejoin="round" stroke-linecap="butt" d="m296.8026 39.761154l90.86615 0l0 90.86615l-90.86615 0z" fill-rule="evenodd"/><path fill="#373647" d="m387.66876 130.6273l90.86615 0l0 90.866135l-90.86615 0z" fill-rule="evenodd"/><path stroke="#ffffff" stroke-width="2.0" stroke-linejoin="round" stroke-linecap="butt" d="m387.66876 130.6273l90.86615 0l0 90.866135l-90.86615 0z" fill-rule="evenodd"/><path fill="#373647" d="m387.66876 39.761154l90.86615 0l0 90.86615l-90.86615 0z" fill-rule="evenodd"/><path stroke="#ffffff" stroke-width="2.0" stroke-linejoin="round" stroke-linecap="butt" d="m387.66876 39.761154l90.86615 0l0 90.86615l-90.86615 0z" fill-rule="evenodd"/><path fill="#373647" d="m345.31967 288.0l-90.866135 0l0 90.86615l90.866135 0z" fill-rule="evenodd"/><path stroke="#ffffff" stroke-width="2.0" stroke-linejoin="round" stroke-linecap="butt" d="m345.31967 288.0l-90.866135 0l0 90.86615l90.866135 0z" fill-rule="evenodd"/><path fill="#373647" d="m254.45354 288.0l-90.866135 0l0 90.86615l90.866135 0z" fill-rule="evenodd"/><path stroke="#ffffff" stroke-width="2.0" stroke-linejoin="round" stroke-linecap="butt" d="m254.45354 288.0l-90.866135 0l0 90.86615l90.866135 0z" fill-rule="evenodd"/><path fill="#373647" d="m163.5874 378.86615l-90.86614 0l0 90.86612l90.86614 0z" fill-rule="evenodd"/><path stroke="#ffffff" stroke-width="2.0" stroke-linejoin="round" stroke-linecap="butt" d="m163.5874 378.86615l-90.86614 0l0 90.86612l90.86614 0z" fill-rule="evenodd"/><path fill="#373647" d="m254.45354 378.86615l-90.866135 0l0 90.86612l90.866135 0z" fill-rule="evenodd"/><path stroke="#ffffff" stroke-width="2.0" stroke-linejoin="round" stroke-linecap="butt" d="m254.45354 378.86615l-90.866135 0l0 90.86612l90.866135 0z" fill-rule="evenodd"/><path fill="#373647" d="m219.98694 137.97841l0 90.86615l-90.866135 0l0 -90.86615z" fill-rule="evenodd"/><path stroke="#ffffff" stroke-width="2.0" stroke-linejoin="round" stroke-linecap="butt" d="m219.98694 137.97841l0 90.86615l-90.866135 0l0 -90.86615z" fill-rule="evenodd"/><path fill="#373647" d="m129.1208 137.97841l0 90.86615l-90.86615 0l0 -90.86615z" fill-rule="evenodd"/><path stroke="#ffffff" stroke-width="2.0" stroke-linejoin="round" stroke-linecap="butt" d="m129.1208 137.97841l0 90.86615l-90.86615 0l0 -90.86615z" fill-rule="evenodd"/><path fill="#373647" d="m129.1208 228.84456l0 90.866135l-90.86615 0l0 -90.866135z" fill-rule="evenodd"/><path stroke="#ffffff" stroke-width="2.0" stroke-linejoin="round" stroke-linecap="butt" d="m129.1208 228.84456l0 90.866135l-90.86615 0l0 -90.866135z" fill-rule="evenodd"/><path fill="#373647" d="m387.66876 221.49344l90.86615 0l0 90.86615l-90.86615 0z" fill-rule="evenodd"/><path stroke="#ffffff" stroke-width="2.0" stroke-linejoin="round" stroke-linecap="butt" d="m387.66876 221.49344l90.86615 0l0 90.86615l-90.86615 0z" fill-rule="evenodd"/><path fill="#373647" d="m129.1208 47.11345l0 90.86615l-90.86615 0l0 -90.86615z" fill-rule="evenodd"/><path stroke="#ffffff" stroke-width="2.0" stroke-linejoin="round" stroke-linecap="butt" d="m129.1208 47.11345l0 90.86615l-90.86615 0l0 -90.86615z" fill-rule="evenodd"/></g></svg>